<?xml version="1.0" encoding="UTF-8" standalone="no"?>
<svg
   xmlns:dc="http://purl.org/dc/elements/1.1/"
   xmlns:cc="http://creativecommons.org/ns#"
   xmlns:rdf="http://www.w3.org/1999/02/22-rdf-syntax-ns#"
   xmlns:svg="http://www.w3.org/2000/svg"
   xmlns="http://www.w3.org/2000/svg"
   xmlns:sodipodi="http://sodipodi.sourceforge.net/DTD/sodipodi-0.dtd"
   xmlns:inkscape="http://www.inkscape.org/namespaces/inkscape"
   version="1.1"
   id="Ebene_1"
   x="0px"
   y="0px"
   viewBox="0 0 432.16032 432.16032"
   xml:space="preserve"
   sodipodi:docname="logo.svg"
   width="432.16031"
   height="432.16031"
   inkscape:version="1.0.1 (3bc2e813f5, 2020-09-07)"><metadata
   id="metadata17"><rdf:RDF><cc:Work
       rdf:about=""><dc:format>image/svg+xml</dc:format><dc:type
         rdf:resource="http://purl.org/dc/dcmitype/StillImage" /><dc:title></dc:title></cc:Work></rdf:RDF></metadata><defs
   id="defs15" /><sodipodi:namedview
   pagecolor="#ffffff"
   bordercolor="#666666"
   borderopacity="1"
   objecttolerance="10"
   gridtolerance="10"
   guidetolerance="10"
   inkscape:pageopacity="0"
   inkscape:pageshadow="2"
   inkscape:window-width="1366"
   inkscape:window-height="703"
   id="namedview13"
   showgrid="false"
   inkscape:zoom="0.26840167"
   inkscape:cx="477.33628"
   inkscape:cy="366.02537"
   inkscape:window-x="0"
   inkscape:window-y="0"
   inkscape:window-maximized="1"
   inkscape:current-layer="Ebene_1"
   fit-margin-top="0"
   fit-margin-left="0"
   fit-margin-right="0"
   fit-margin-bottom="0" />
<style
   type="text/css"
   id="style2">
	.st0{fill:#F8A800;}
</style>
<g
   id="g10"
   style="fill:#000000"
   transform="translate(-81.584661,-82.505313)">
	<path
   class="st0"
   d="m 102.5,84.6 c -0.9,-0.9 0.3,-2.5 1.5,-2 71.9,29.9 255.3,193.4 262.8,222.9 7.6,29.9 -49.2,149.8 -105.8,208.8 -0.9,0.9 -2.4,0 -2,-1.2 9.6,-30.2 20.2,-64.8 18.4,-86.7 -0.3,-3.5 -4.5,-5 -7,-2.7 -5.6,5.2 -11.3,19.2 -16.3,29.5 -0.5,1.1 -2.1,0.7 -2.1,-0.5 0.3,-69.3 -18.4,-128.5 -73.9,-187.2 -0.7,-0.8 0.1,-2 1.1,-1.6 15.4,6.1 35.7,20.3 52.8,32 1.2,0.8 2.7,-0.2 2.5,-1.7 -5.9,-41.4 -107.6,-184.3 -132,-209.6 z"
   id="path4"
   style="fill:#000000" />
	<path
   class="st0"
   d="m 363.1,188.8 c -0.4,-0.5 0.3,-1.3 0.9,-1 36.7,19.2 126.4,114.4 129,130.4 2.7,16.2 -33.1,77.1 -65.8,105.8 -0.5,0.4 -1.3,-0.1 -1,-0.7 6.5,-15.6 13.7,-33.4 13.8,-45.1 0,-1.8 -2.1,-2.9 -3.6,-1.7 -3.2,2.5 -6.9,9.6 -10,14.9 -0.3,0.5 -1.2,0.3 -1.1,-0.4 3.4,-36.7 -3.8,-69 -30.5,-102.6 -0.3,-0.4 0.1,-1 0.6,-0.8 7.9,3.9 18,12.4 26.5,19.4 0.6,0.5 1.4,0 1.4,-0.8 -1.1,-22.4 -48.4,-102.9 -60.2,-117.4 z"
   id="path6"
   style="fill:#000000" />
	<path
   class="st0"
   d="m 373.2,362 c -0.1,-0.3 0.3,-0.5 0.6,-0.3 13.4,14.7 38.3,72.5 36.9,80.2 -1.5,7.8 -27.6,29.4 -47.1,37 -0.3,0.1 -0.6,-0.3 -0.3,-0.5 5.5,-6 11.7,-12.8 13.6,-18.1 0.3,-0.8 -0.5,-1.7 -1.3,-1.4 -1.8,0.6 -4.7,3.2 -7,5.1 -0.2,0.2 -0.6,-0.1 -0.4,-0.3 7.6,-16.1 9.6,-31.8 3.1,-51.4 -0.1,-0.3 0.2,-0.4 0.4,-0.3 2.9,3.1 6.1,8.6 8.8,13.1 0.2,0.3 0.7,0.2 0.8,-0.1 3,-10.3 -5.1,-54.5 -8.1,-63 z"
   id="path8"
   style="fill:#000000" />
</g>
</svg>
